<?xml version="1.0" standalone="no"?>
<svg viewBox="0 0 200 200" xmlns="http://www.w3.org/2000/svg">
<clipPath id="myclip">
<path fill="#FA4D56" d="M47.6,-74.7C61,-65.4,70.7,-51.1,76.7,-35.7C82.7,-20.3,85,-3.9,83.4,12.5C81.9,28.9,76.4,45.2,66.6,59C56.7,72.8,42.3,84.1,26.2,88.5C10,92.9,-7.9,90.5,-23.8,84.3C-39.7,78.2,-53.5,68.3,-64.6,55.8C-75.6,43.3,-83.9,28.3,-87.6,11.7C-91.4,-4.9,-90.7,-23,-84.1,-38.9C-77.6,-54.8,-65.3,-68.6,-50.3,-77.2C-35.3,-85.8,-17.6,-89.2,-0.3,-88.8C17.1,-88.3,34.2,-84,47.6,-74.7Z" transform="translate(100 100)" />
</clipPath>
</svg>
